<?xml version="1.0" encoding="UTF-8" standalone="no"?>
<!-- Created with Inkscape (http://www.inkscape.org/) -->

<svg
   width="200mm"
   height="200mm"
   viewBox="0 0 200 200"
   version="1.1"
   id="svg1"
   inkscape:version="1.3 (0e150ed6c4, 2023-07-21)"
   sodipodi:docname="ztils_logo.svg"
   inkscape:export-filename="ztils_logo.png"
   inkscape:export-xdpi="96"
   inkscape:export-ydpi="96"
   xmlns:inkscape="http://www.inkscape.org/namespaces/inkscape"
   xmlns:sodipodi="http://sodipodi.sourceforge.net/DTD/sodipodi-0.dtd"
   xmlns:xlink="http://www.w3.org/1999/xlink"
   xmlns="http://www.w3.org/2000/svg"
   xmlns:svg="http://www.w3.org/2000/svg">
  <sodipodi:namedview
     id="namedview1"
     pagecolor="#505050"
     bordercolor="#eeeeee"
     borderopacity="1"
     inkscape:showpageshadow="0"
     inkscape:pageopacity="0"
     inkscape:pagecheckerboard="0"
     inkscape:deskcolor="#505050"
     inkscape:document-units="mm"
     inkscape:zoom="0.76702441"
     inkscape:cx="355.26901"
     inkscape:cy="404.81111"
     inkscape:window-width="1920"
     inkscape:window-height="1057"
     inkscape:window-x="1912"
     inkscape:window-y="540"
     inkscape:window-maximized="1"
     inkscape:current-layer="layer1" />
  <defs
     id="defs1">
    <rect
       x="307.68252"
       y="234.6731"
       width="556.69675"
       height="268.57033"
       id="rect42" />
    <linearGradient
       id="linearGradient40"
       inkscape:collect="always">
      <stop
         style="stop-color:#4a85c5;stop-opacity:1;"
         offset="0"
         id="stop41" />
      <stop
         style="stop-color:#084a66;stop-opacity:1;"
         offset="1"
         id="stop42" />
    </linearGradient>
    <linearGradient
       inkscape:collect="always"
       xlink:href="#linearGradient40"
       id="linearGradient42"
       x1="6.7444634"
       y1="100.72474"
       x2="198.1545"
       y2="100.72474"
       gradientUnits="userSpaceOnUse" />
  </defs>
  <g
     inkscape:label="Layer 1"
     inkscape:groupmode="layer"
     id="layer1">
    <path
       sodipodi:type="star"
       style="fill:url(#linearGradient42);stroke:#4057a7;stroke-width:5.065;stroke-dasharray:none;stroke-opacity:1"
       id="path1"
       inkscape:flatsided="false"
       sodipodi:sides="6"
       sodipodi:cx="102.44948"
       sodipodi:cy="100.72474"
       sodipodi:r1="92.79158"
       sodipodi:r2="80.649277"
       sodipodi:arg1="-0.0037174556"
       sodipodi:arg2="0.53325405"
       inkscape:rounded="0"
       inkscape:randomized="0"
       d="m 195.24042,100.37979 -23.33921,41.34206 -22.75753,39.18973 -47.47288,0.45868 L 56.352742,181.25652 32.219072,140.37314 9.6585391,101.06969 32.997751,59.727625 55.755275,20.537903 l 47.472885,-0.458681 45.31805,0.113733 24.13367,40.883381 z"
       inkscape:transform-center-y="-2.0881339e-06"
       transform="rotate(30.907217,102.44948,100.72474)" />
    <circle
       id="path42"
       style="fill:#bfd7e5;stroke:#4057a7;stroke-width:0.264583"
       cx="28.975611"
       cy="150.74216"
       r="0" />
    <path
       style="fill:none;fill-opacity:1;stroke:#4057a7;stroke-width:3;stroke-dasharray:none;stroke-opacity:1"
       d="m 22.76655,145.223 c 0,0 5.104183,-3.90301 14.142857,-12.41812 12.422334,-11.70277 5.61751,-63.529605 20.696865,-63.470387 13.029982,0.05117 9.293585,40.551677 29.320557,52.432057 14.254951,8.4563 94.860621,25.52613 94.860621,25.52613"
       id="path45"
       sodipodi:nodetypes="csssc" />
    <path
       style="fill:none;fill-opacity:1;stroke:#4057a7;stroke-width:3;stroke-dasharray:none;stroke-opacity:1"
       d="m 22.76655,145.223 c 0,0 5.938815,-6.43452 13.452961,-28.63067 7.75899,-22.91939 3.889266,-61.757701 11.383277,-62.09059 7.491992,-0.332799 8.161409,59.61223 27.595818,72.43903 19.084219,12.59567 106.588844,20.35191 106.588844,20.35191"
       id="path46"
       sodipodi:nodetypes="csssc" />
    <path
       style="fill:none;fill-opacity:1;stroke:#4057a7;stroke-width:3;stroke-dasharray:none;stroke-opacity:1"
       d="m 22.76655,145.223 c 0,0 17.398855,-1.98973 29.320557,-13.45297 9.334539,-8.97557 16.308958,-42.039371 35.184671,-41.738673 17.511412,0.278963 19.831012,31.272893 36.219512,42.428573 15.96676,10.8686 57.94495,14.68223 58.29616,14.83275"
       id="path47"
       sodipodi:nodetypes="csssc" />
    <text
       xml:space="preserve"
       transform="matrix(0.26458333,0,0,0.26458333,-52.432056,44.498257)"
       id="text42"
       style="font-style:normal;font-variant:normal;font-weight:normal;font-stretch:normal;font-size:192px;line-height:0;font-family:'Palatino Linotype';-inkscape-font-specification:'Palatino Linotype';text-align:center;letter-spacing:5px;word-spacing:0px;white-space:pre;shape-inside:url(#rect42);display:inline;fill:#bfd7e5;fill-opacity:1;stroke:#4057a7;stroke-width:0;stroke-dasharray:none;stroke-opacity:1"><tspan
         x="400.15527"
         y="276.97657"
         id="tspan1">ztils</tspan></text>
  </g>
</svg>
